<svg width="138" height="138" viewBox="0 0 138 138" fill="none" xmlns="http://www.w3.org/2000/svg">
<g filter="url(#filter0_d_1129_113)">
<path d="M62.521 0.135756C62.0219 0.256219 59.5699 0.686444 57.0729 1.09115C10.1741 8.69813 -12.0083 65.9044 17.0263 104.367C26.0681 116.344 46.8323 129.907 47.8607 124.506C47.9895 123.832 46.7534 122.978 43.6854 121.624C31.0991 116.065 19.7097 105.112 13.4955 92.5938C-9.07443 47.1276 29.5402 -4.32316 79.965 4.02855C87.5399 5.28362 88.8555 2.66785 81.4319 1.11133C78.053 0.402793 64.344 -0.304558 62.521 0.135756ZM62.8236 13.5428C53.9562 14.8495 42.5455 19.3897 42.5455 21.6114C42.5455 23.3353 43.8261 23.2018 48.5063 20.9901C74.1424 8.87794 105.354 22.1307 114.64 49.0717C130.075 93.8525 79.1194 131.76 40.427 104.279C18.9264 89.009 13.9684 58.679 29.4031 36.8396C33.4989 31.0443 31.3436 28.5941 27.1612 34.2915C1.39221 69.3967 28.2964 118.982 71.7711 116.507C115.658 114.008 136.641 61.4206 106.441 29.6195C95.3694 17.9613 77.5088 11.378 62.8242 13.5416L62.8236 13.5428ZM115.588 21.4488C114.688 22.349 115.376 23.9601 118.257 27.704C139.62 55.458 132.626 96.943 103.294 116.46C90.0768 125.255 78.472 127.692 56.7708 126.233C54.7271 126.096 54.3491 126.252 54.3491 127.237C54.3491 131.711 80.324 130.498 93.2029 125.422C130.968 110.539 145.858 62.4947 123.094 28.9739C118.774 22.6137 116.602 20.4347 115.588 21.4488ZM51.2645 44.1107C50.191 45.2964 50.099 46.6867 49.9347 64.2031C49.6647 92.9997 46.7985 92.1292 81.569 73.8111C98.5145 64.8832 98.6095 65.1633 74.3056 52.4144C55.3039 42.4468 53.3949 41.7584 51.2645 44.1107ZM72.2637 55.0052C90.726 64.6482 90.8221 64.7081 89.5308 65.7798C88.0829 66.9821 55.1615 84 54.285 84C53.5812 84 53.4412 80.8353 53.4412 64.9324C53.4412 51.5575 53.6388 45.8642 54.1022 45.8642C54.4654 45.8642 62.6379 49.9778 72.2637 55.0052Z" fill="white"/>
</g>
<defs>
<filter id="filter0_d_1129_113" x="0" y="-0.000488281" width="137.865" height="138" filterUnits="userSpaceOnUse" color-interpolation-filters="sRGB">
<feFlood flood-opacity="0" result="BackgroundImageFix"/>
<feColorMatrix in="SourceAlpha" type="matrix" values="0 0 0 0 0 0 0 0 0 0 0 0 0 0 0 0 0 0 127 0" result="hardAlpha"/>
<feOffset dy="4"/>
<feGaussianBlur stdDeviation="2"/>
<feComposite in2="hardAlpha" operator="out"/>
<feColorMatrix type="matrix" values="0 0 0 0 0 0 0 0 0 0 0 0 0 0 0 0 0 0 0.25 0"/>
<feBlend mode="normal" in2="BackgroundImageFix" result="effect1_dropShadow_1129_113"/>
<feBlend mode="normal" in="SourceGraphic" in2="effect1_dropShadow_1129_113" result="shape"/>
</filter>
</defs>
</svg>
